<?xml version="1.0" encoding="UTF-8" standalone="no"?>
<svg
   version="1.1"
   width="32"
   height="32"
   id="svg17"
   viewBox="0 0 32 32"
   xmlns="http://www.w3.org/2000/svg"
   xmlns:svg="http://www.w3.org/2000/svg">
  <defs
     id="defs17" />
  <rect
     style="fill:#000000;stroke:#000000"
     id="rect19"
     width="32"
     height="32"
     x="0"
     y="0" />
  <g
     id="g18"
     transform="matrix(0.04677983,0,0,0.07533111,-7.7138105,-15.218208)">
    <path
       d="m 0,0 c 2.8485998,0.37257083 5.6977167,0.74110232 8.546875,1.109375 0.7117035,0.092576 1.423407,0.1851517 2.156677,0.2805328 4.578389,0.5911993 9.159822,1.1283911 13.749573,1.6257172 1.151133,0.1252808 2.302266,0.2505615 3.488281,0.3796387 2.126915,0.2280407 4.254489,0.4500619 6.382813,0.6645507 C 44.274102,5.139205 53.760982,7.4288482 63.0625,11.125 c 3.747828,1.485005 7.394773,2.918614 11.296875,3.953125 6.923234,1.868174 6.923234,1.868174 8.871094,5.238281 0.867298,2.954098 1.337518,5.822014 1.769531,8.871094 0.243928,1.321695 0.495627,2.641972 0.753906,3.960937 0.652809,3.337447 1.257883,6.681523 1.851675,10.030041 0.263025,1.339749 0.562397,2.672866 0.897319,3.996474 1.494782,5.923753 1.766161,11.479813 1.709304,17.569997 -0.0015,1.019163 -0.003,2.038325 -0.0045,3.088371 -0.0076,3.37444 -0.02997,6.748608 -0.05268,10.122979 -0.0091,2.414183 -0.01747,4.82837 -0.02514,7.242558 -0.02363,6.384172 -0.06121,12.768176 -0.104137,19.152243 -0.02502,3.728 -0.04793,7.45601 -0.0703,11.18402 -0.198024,32.19477 -0.532459,64.38869 -0.869841,96.58227 -0.03095,2.95932 -0.06185,5.91865 -0.09269,8.87797 -0.0077,0.73485 -0.01532,1.4697 -0.02321,2.22682 -0.124148,11.95852 -0.230185,23.91714 -0.329359,35.87589 -0.1035,12.43787 -0.22495,24.87546 -0.362807,37.313 -0.07625,6.92017 -0.145055,13.84023 -0.193303,20.76066 -0.35232,49.33494 -0.35232,49.33494 -3.214365,70.65176 -0.08747,0.70621 -0.174931,1.41243 -0.265047,2.14005 -1.106327,8.56422 -2.824396,14.6369 -9.667326,20.22396 -2.260947,1.53299 -4.496973,2.74338 -6.9375,4 -0.63446,0.5124 -1.268921,1.0248 -1.922607,1.55273 -2.336828,1.62801 -3.785418,1.96426 -6.593018,2.29102 -0.905244,0.11046 -1.810488,0.22091 -2.743164,0.33472 -0.9871,0.1061 -1.974199,0.21221 -2.991211,0.32153 -1.56186,0.17946 -1.56186,0.17946 -3.155273,0.36255 -3.529903,0.39653 -7.061821,0.76867 -10.594727,1.13745 -1.949062,0.20955 -1.949062,0.20955 -3.9375,0.42334 -3.425744,0.36692 -6.852797,0.71866 -10.281128,1.06055 -1.953981,0.19585 -3.907247,0.3988 -5.860474,0.60205 -7.032758,0.6703 -13.9815406,1.01646 -21.04248,1.00635 -1.2962056,-0.002 -1.2962056,-0.002 -2.6185971,-0.003 -15.3999409,-0.0765 -30.7808719,-0.99763 -46.1525609,-1.86591 -5.429164,-0.30655 -10.857708,-0.59217 -16.290365,-0.82972 -5.3171,-0.23291 -10.629223,-0.51683 -15.941784,-0.83657 -2.005972,-0.11222 -4.01302,-0.20677 -6.020699,-0.28253 -16.379121,-0.63848 -16.379121,-0.63848 -21.250591,-4.73622 -2.51194,-2.7296 -4.57832,-5.43755 -6.60382,-8.53799 -1.07227,-1.34225 -2.15302,-2.67787 -3.25,-4 -2.80205,-3.85479 -5.04188,-7.97864 -7.25781,-12.19141 -1.49769,-2.92054 -1.49769,-2.92054 -3.55664,-5.97046 -2.24247,-3.93777 -2.48766,-7.59266 -2.39649,-12.05688 0.008,-1.12706 0.008,-1.12706 0.0166,-2.27689 0.23473,-28.9762 0.23473,-28.9762 0.90085,-40.84176 1.49377,-26.93029 1.77786,-53.83101 1.88721,-80.79541 0.004,-0.97801 0.008,-1.95601 0.0124,-2.96366 0.0633,-15.3428 0.10534,-30.68565 0.14387,-46.02853 0.0767,-30.43792 0.18001,-60.87492 0.47545,-91.31163 0.024,-2.503 0.0464,-5.00602 0.0686,-7.50903 0.0808,-8.772171 0.20591,-17.541653 0.40617,-26.311935 0.0528,-2.51414 0.0933,-5.028575 0.1199,-7.543129 0.18136,-15.695159 2.46107,-28.092521 9.42986,-42.199276 0.58455,-1.211062 0.58455,-1.211062 1.18091,-2.44659 2.2009,-4.558075 4.47157,-9.069117 6.81909,-13.55341 0.33,-0.66 0.66,-1.32 1,-2 1.79498,-0.3856354 1.79498,-0.3856354 4.16504,-0.5783691 0.88472,-0.076704 1.76944,-0.1534086 2.68097,-0.2324372 0.96347,-0.074035 1.92695,-0.148071 2.91961,-0.22435 1.478327,-0.1253739 1.478327,-0.1253739 2.986515,-0.2532806 3.165286,-0.2669335 6.33144,-0.5210274 9.497864,-0.7740631 3.151909,-0.2588536 6.303568,-0.5203809 9.455017,-0.7847748 1.964088,-0.1640271 3.92848,-0.3244505 5.893189,-0.4808655 0.897328,-0.073552 1.794657,-0.1471041 2.719177,-0.2228851 0.785301,-0.062807 1.570602,-0.1256131 2.3797,-0.1903229 C -64.829049,2.1682997 -62.43833,1.6846902 -60,1.1875 c 2.598336,-0.27901247 5.189896,-0.53174256 7.792969,-0.75390625 1.119105,-0.0977598 1.119105,-0.0977598 2.260818,-0.19749451 1.575778,-0.13670276 3.151684,-0.27193179 4.727707,-0.40577697 2.381263,-0.20321073 4.761778,-0.4139405 7.142334,-0.62524415 C -24.987537,-1.9359361 -13.044978,-1.7445129 0,0 Z"
       fill="#ededed"
       id="path2"
       transform="translate(545,202.8125)" />
    <path
       d="m 0,0 c 1.3101287,-0.00611329 1.3101287,-0.00611329 2.6467247,-0.01235008 4.5843897,-0.02032855 9.1687533,-0.03487054 13.7531773,-0.04453469 3.718911,-0.0089761 7.437462,-0.03018985 11.15625,-0.06152343 4.605115,-0.0387692 9.20991,-0.0572664 13.815182,-0.061758 1.716456,-0.004789 3.43291,-0.0161733 5.149269,-0.035038 11.671809,-0.12083602 22.049237,1.3199654 33.284084,4.4534854 1.478858,0.3954048 2.958121,0.7893006 4.43779,1.1816559 3.4377,0.9221486 6.803269,1.9452816 10.182816,3.0536957 1.678834,0.5395145 3.366467,1.0520125 5.05957,1.5449222 14.767327,4.376829 22.220857,9.819131 29.706547,23.344726 0.44778,0.843047 0.89557,1.686094 1.35693,2.554688 1.63821,3.025555 3.49216,5.799596 5.44385,8.632812 2.16764,3.232944 4.33228,6.467623 6.48437,9.710938 0.45867,0.690534 0.91733,1.381069 1.3899,2.092529 0.90167,1.357709 1.80257,2.715927 2.70263,4.074707 1.92962,3.052577 1.92962,3.052577 4.2356,5.809326 0.12202,1.361275 0.17649,2.728685 0.20334,4.095154 0.0195,0.886767 0.0391,1.773534 0.0592,2.687172 0.0163,0.984166 0.0326,1.968333 0.0495,2.982323 0.0205,1.035004 0.041,2.070007 0.0621,3.136375 0.0663,3.486035 0.12409,6.972143 0.18058,10.458351 0.0209,1.213197 0.0419,2.426394 0.0634,3.676354 0.50351,29.57581 0.53517,59.15097 0.51044,88.73026 -0.004,5.06255 -0.002,10.12508 0.002,15.18762 0.0219,27.30318 0.0433,54.60703 -0.51319,81.90577 -0.0151,0.86679 -0.0303,1.73359 -0.0459,2.62665 -0.22216,12.13445 -1.42262,23.58043 -4.57129,35.32647 -1.76681,6.9693 -2.53378,13.8374 -3.0625,21 -1.21201,16.27059 -4.96765,27.94935 -14.88721,40.88501 -3.24415,4.34244 -5.59095,8.38554 -7.5542,13.45093 -2.96416,6.95084 -6.17739,12.48653 -12.49609,16.85156 -6.26653,2.02975 -13.098535,1.63522 -19.609378,1.65234 -2.014904,0.0426 -4.02973,0.089 -6.044464,0.13901 -5.579831,0.12067 -11.157939,0.16703 -16.738945,0.1916 -3.69213,0.0174 -7.383999,0.0473 -11.076027,0.0796 -16.727689,0.13833 -33.453093,0.13694 -50.1810402,0.0815 -7.0431432,-0.023 -14.0862922,-0.0335 -21.1294638,-0.0434 -14.406933,-0.0205 -28.813808,-0.0554 -43.220684,-0.10065 -0.10597,-36.39909 -0.109685,-72.79175 0.4375,-109.1875 0.02257,-1.51622 0.0451,-3.03245 0.0676,-4.54867 0.01132,-0.76259 0.02263,-1.52517 0.03429,-2.31087 0.05862,-3.95307 0.117132,-7.90614 0.175456,-11.85921 0.01186,-0.80129 0.02372,-1.60257 0.03593,-2.42814 0.313569,-21.28368 0.540118,-42.56818 0.749224,-63.85311 0.0101,-1.02197 0.0202,-2.04394 0.0306,-3.09688 0.697736,-70.90339 1.055226,-141.810129 1.469399,-212.7156188 C -18.218321,0.07627171 -18.218321,0.07627171 0,0 Z"
       fill="#ededed"
       id="path3"
       transform="translate(229.19531,208.76172)" />
    <path
       d="m 0,0 c 60.39,0 120.78,0 183,0 0,26.722145 0,26.722145 -0.4375,38.9375 -0.0444,1.311057 -0.0888,2.622114 -0.13452,3.9729 C 182.10857,51.954459 181.65433,60.974453 181,70 c -9.06681,0.113974 -18.0342,-0.213001 -27.07813,-0.839844 -1.93803,-0.129619 -1.93803,-0.129619 -3.91522,-0.261856 -2.70943,-0.181449 -5.41866,-0.365733 -8.12774,-0.552353 -3.44778,-0.237429 -6.89591,-0.469279 -10.3442,-0.69921 -3.32943,-0.222421 -6.65863,-0.448284 -9.98783,-0.674081 -1.8378,-0.123501 -1.8378,-0.123501 -3.71271,-0.249496 C 111.53365,66.288078 105.27058,65.753861 99,65 c 0.05011,1.031577 0.100225,2.063155 0.151855,3.125992 0.474689,9.781386 0.945535,19.562951 1.412755,29.344697 0.24024,5.027361 0.48178,10.054651 0.72641,15.081801 0.23657,4.86281 0.46958,9.72578 0.70025,14.58888 0.0881,1.84374 0.17734,3.68741 0.26795,5.53103 0.52923,10.78734 0.86977,21.52603 0.74078,32.3276 0.81353,-0.10022 1.62706,-0.20045 2.46524,-0.30371 7.67952,-0.94544 15.35946,-1.88741 23.03988,-2.8255 3.94824,-0.48237 7.8963,-0.96606 11.844,-1.45282 3.81215,-0.47 7.62472,-0.93647 11.4376,-1.40051 1.45215,-0.17736 2.90414,-0.35598 4.35597,-0.53589 2.03879,-0.25243 4.07809,-0.50032 6.11756,-0.7472 1.73874,-0.21317 1.73874,-0.21317 3.51261,-0.43066 3.09861,-0.29161 6.11711,-0.35906 9.22714,-0.30371 0.29071,5.91811 0.57521,11.83647 0.85449,17.75513 0.0954,2.00431 0.19234,4.00854 0.29102,6.01269 0.14333,2.91705 0.28063,5.83433 0.41699,8.75171 0.0437,0.86438 0.0875,1.72876 0.13257,2.61934 C 177.1189,201.44795 177,210.64439 177,220 c -27.39,0 -54.78,0 -83,0 0.649687,12.9873 1.299375,25.97461 1.96875,39.35547 0.410511,8.23501 0.820858,16.47002 1.230469,24.70508 0.649968,13.06674 1.300598,26.13345 1.955566,39.19995 0.477061,9.51733 0.951835,19.03477 1.423915,28.55235 0.24986,5.03575 0.50083,10.07144 0.75454,15.107 0.23918,4.74809 0.4753,9.49633 0.70915,14.24469 0.0859,1.73454 0.17298,3.46903 0.26123,5.20346 0.48554,9.55575 0.82248,19.061 0.69638,28.632 -20.669844,0.21986 -41.325147,-0.40337 -61.986267,-0.92712 -4.861299,-0.12264 -9.722676,-0.24215 -14.584046,-0.36194 C 16.953049,413.47696 7.476498,413.23961 -2,413 -2.045802,362.55248 -2.081032,312.10497 -2.1021307,261.65744 c -0.0025,-5.95914 -0.00509,-11.91828 -0.00773,-17.87741 -5.246e-4,-1.18633 -0.00105,-2.37266 -0.00159,-3.59494 -0.0087,-19.19546 -0.024463,-38.3909 -0.042853,-57.58635 -0.018719,-19.7041 -0.029815,-39.40819 -0.033871,-59.1123 -0.00274,-12.15324 -0.01139,-24.306447 -0.027656,-36.459678 -0.010592,-8.339943 -0.013763,-16.679869 -0.01117,-25.019818 0.00128,-4.807839 -6.469e-4,-9.615619 -0.011408,-14.423448 -0.0098,-4.410374 -0.010181,-8.820649 -0.00339,-13.231028 8.386e-4,-1.587069 -0.00164,-3.174144 -0.00797,-4.7612 -0.00817,-2.176728 -0.00362,-4.353113 0.00367,-6.529837 -7.594e-4,-1.203334 -0.00152,-2.406668 -0.0023,-3.646466 C -1.8824308,12.910345 -0.86103439,6.4577579 0,0 Z"
       fill="#ededed"
       id="path4"
       transform="translate(671,207)" />
    <path
       d="m 0,0 c 7.7459478,-0.13992584 15.491591,-0.24608397 23.238491,-0.31087303 3.598533,-0.0311194 7.196193,-0.0732258 10.794224,-0.14176369 3.48197,-0.0659008 6.963109,-0.10121448 10.445656,-0.11662674 1.954165,-0.0162431 3.908002,-0.0629662 5.861656,-0.11051559 C 59.316822,-0.68311263 65.315347,1.4708007 73,6 c 0.152272,13.508281 -0.319341,26.933313 -1.009766,40.422363 -0.108755,2.189801 -0.217117,4.379621 -0.325119,6.569458 -0.291463,5.88738 -0.588374,11.774474 -0.886335,17.661528 -0.311518,6.17373 -0.617926,12.347713 -0.924898,18.521669 -0.580787,11.665602 -1.166105,23.330972 -1.753091,34.996262 -0.668585,13.2914 -1.33206,26.58306 -1.995125,39.87474 C 64.74276,191.3643 63.373501,218.68225 62,246 c -0.519089,0.22663 -1.038179,0.45327 -1.572998,0.68677 -2.373045,1.03842 -4.743776,2.08203 -7.114502,3.12573 -0.816621,0.35643 -1.633242,0.71285 -2.474609,1.08008 C 46.712011,252.71331 42.850908,254.63979 39,257 c -2.238037,0.36749 -2.238037,0.36749 -4.527344,0.35645 -0.864397,0.003 -1.728794,0.006 -2.619385,0.009 -0.920954,-0.0124 -1.841909,-0.0247 -2.790771,-0.0374 -0.957693,-0.002 -1.915386,-0.004 -2.9021,-0.006 -2.020624,-0.007 -4.041236,-0.0206 -6.061767,-0.0412 -3.087689,-0.0311 -6.174866,-0.041 -9.262695,-0.0469 -1.9661525,-0.009 -3.9322994,-0.0195 -5.898438,-0.0312 -0.9209546,-0.004 -1.8419092,-0.008 -2.7907715,-0.0129 C -2.0223217,257.14391 -5.9361504,257.05398 -10,256 c -0.134669,-14.28194 0.081535,-28.54669 0.4023437,-42.82422 0.04178,-1.88148 0.083553,-3.76297 0.1253205,-5.64445 0.1590885,-7.1308 0.3194118,-14.26157 0.4823494,-21.39227 0.606829,-26.60658 1.0541701,-53.20291 1.0926456,-79.81701 0.00604,-3.98359 0.017699,-7.967151 0.030169,-11.950727 0.00793,-2.630692 0.015821,-5.261383 0.023666,-7.892075 0.00393,-1.292993 0.00787,-2.585986 0.011918,-3.91816 0.019871,-7.679146 0.00779,-15.357466 -0.02661,-23.036548 -0.014526,-4.820984 -3.888e-4,-9.641601 0.020697,-14.462547 0.00358,-2.230044 -0.00491,-4.460149 -0.026932,-6.690087 C -7.9995877,24.084655 -6.2501051,12.924546 0,0 Z"
       fill="#000000"
       id="path5"
       transform="translate(481,319)" />
    <path
       d="m 0,0 c 12.062383,1.7218014 24.036532,3.6963797 36,6 2.930656,11.257168 5.498428,22.580709 7.980957,33.94458 0.247339,1.128171 0.494678,2.256343 0.749512,3.418701 0.220671,1.013606 0.441343,2.027212 0.668701,3.071533 C 45.981338,49.096589 45.981338,49.096589 47,52 c 0.09974,2.165644 0.138305,4.334269 0.145264,6.502197 0.0034,0.657835 0.0067,1.31567 0.01018,1.993439 0.0095,2.190276 0.01146,4.380475 0.01253,6.57077 0.0032,1.550939 0.0066,3.101878 0.01009,4.652817 0.006,3.276135 0.0078,6.552244 0.0072,9.828384 -8e-5,3.287819 0.0066,6.575493 0.02051,9.863282 0.08392,20.193831 -0.419357,40.223941 -1.752783,60.371781 -0.689739,10.60348 -1.186135,21.21776 -1.706934,31.83061 -0.05332,1.08143 -0.106631,2.16286 -0.161562,3.27706 -0.273755,5.55349 -0.545959,11.10705 -0.81671,16.66069 -0.2753,5.64487 -0.553976,11.28957 -0.83378,16.93422 -0.165186,3.34241 -0.328636,6.6849 -0.491751,10.02741 -0.210559,4.3131 -0.427926,8.62578 -0.649963,12.9383 -0.452636,8.96778 -0.856913,17.90992 -0.850433,26.89035 -0.0082,1.36387 -0.01683,2.72773 -0.02586,4.0916 -0.0037,2.37852 0.02786,4.75756 0.106293,7.13479 -0.01494,4.45409 -0.154692,7.28164 -2.885682,10.90351 -5.112237,4.85066 -8.801879,6.43119 -15.87297,6.28074 -1.015137,-0.0625 -2.030274,-0.12504 -3.076172,-0.18945 -1.505303,-0.0416 -1.505303,-0.0416 -3.041016,-0.084 C 8.0806312,298.24707 1.0392109,297.63765 -6,297 c -0.025429,-4.95402 -0.043189,-9.90799 -0.054932,-14.86206 -0.00491,-1.67221 -0.011644,-3.34441 -0.020508,-5.0166 -0.051544,-10.00248 0.108464,-19.96784 0.5520019,-29.96118 0.5863888,-13.31547 0.7635298,-26.628 0.9115906,-39.9542 0.086866,-7.7446 0.1921434,-15.48896 0.2993469,-23.2333 0.011425,-0.82647 0.022849,-1.65294 0.03462,-2.50445 0.3083585,-22.05373 0.751003,-44.10478 1.2153797,-66.15571 0.02112,-1.00468 0.042239,-2.00936 0.063999,-3.04449 C -2.2091968,74.838816 -1.2034797,37.418107 0,0 Z"
       fill="#020202"
       id="path8"
       transform="translate(276,284)" />
  </g>
</svg>
