<?xml version="1.0" encoding="UTF-8"?>
<svg version="1.1" xmlns="http://www.w3.org/2000/svg" width="1024" height="1024">
<path d="M0 0 C337.92 0 675.84 0 1024 0 C1024 337.92 1024 675.84 1024 1024 C686.08 1024 348.16 1024 0 1024 C0 686.08 0 348.16 0 0 Z " fill="#000000" transform="translate(0,0)"/>
<path d="M0 0 C2.84859985 0.37257083 5.69771669 0.74110232 8.546875 1.109375 C9.25857849 1.20195084 9.97028198 1.29452667 10.70355225 1.38990784 C15.28194078 1.98110714 19.86337448 2.51829893 24.453125 3.015625 C25.60425781 3.14090576 26.75539063 3.26618652 27.94140625 3.39526367 C30.06832108 3.62330435 32.19589458 3.84532562 34.32421875 4.05981445 C44.27410231 5.13920504 53.76098207 7.4288482 63.0625 11.125 C66.81032793 12.6100054 70.4572734 14.04361434 74.359375 15.078125 C81.2826087 16.94629917 81.2826087 16.94629917 83.23046875 20.31640625 C84.09776706 23.27050353 84.56798745 26.13841969 85 29.1875 C85.24392797 30.50919474 85.49562734 31.82947206 85.75390625 33.1484375 C86.40671524 36.48588441 87.01178865 39.82996046 87.60558051 43.17847759 C87.86860553 44.5182267 88.1679777 45.8513443 88.50290042 47.17495173 C89.99768236 53.09870479 90.26906095 58.65476503 90.21220398 64.74494934 C90.21071983 65.76411151 90.20923569 66.78327368 90.20770657 67.83331954 C90.200081 71.20776041 90.17773933 74.58192832 90.1550293 77.95629883 C90.1459245 80.37048237 90.13755948 82.7846688 90.12988567 85.19885731 C90.10625067 91.58302879 90.06867464 97.96703288 90.02574873 104.3511014 C90.00072755 108.07910022 89.97781771 111.80710635 89.95544815 115.53512192 C89.75742393 147.72989201 89.42298944 179.92381255 89.08560658 212.11738873 C89.05465325 215.07671233 89.02375642 218.03603651 88.99291992 220.99536133 C88.98525963 221.73021261 88.97759934 222.46506389 88.96970692 223.22218338 C88.84555879 235.18070419 88.73952178 247.13931912 88.64034776 259.09807029 C88.53684838 271.53593554 88.4153985 283.973533 88.27754134 296.4110654 C88.20129484 303.33124052 88.13248587 310.25129629 88.08423805 317.17172813 C87.73191828 366.50666587 87.73191828 366.50666587 84.86987305 387.82348633 C84.78240739 388.52970418 84.69494174 389.23592204 84.60482562 389.96354043 C83.49849911 398.5277598 81.78042977 404.60044149 74.9375 410.1875 C72.67655335 411.72049491 70.44052676 412.93087597 68 414.1875 C67.36553955 414.69990234 66.7310791 415.21230469 66.07739258 415.74023438 C63.74056532 417.36824142 62.29197512 417.70448845 59.484375 418.03125 C58.57913086 418.14170654 57.67388672 418.25216309 56.74121094 418.3659668 C55.75411133 418.47207275 54.76701172 418.57817871 53.75 418.6875 C52.18813965 418.86696167 52.18813965 418.86696167 50.59472656 419.05004883 C47.06482386 419.44658315 43.53290552 419.81871588 40 420.1875 C38.0509375 420.39705322 38.0509375 420.39705322 36.0625 420.61083984 C32.63675564 420.97776177 29.20970311 421.32950329 25.78137207 421.67138672 C23.82739095 421.86724277 21.87412501 422.07019434 19.92089844 422.2734375 C12.88814049 422.9437388 5.93935745 423.28989568 -1.12158203 423.27978516 C-2.41778756 423.27812961 -2.41778756 423.27812961 -3.74017906 423.27644062 C-19.14012037 423.19989764 -34.52105066 422.27880916 -49.89274025 421.41052532 C-55.32190381 421.10398034 -60.7504479 420.8183629 -66.18310547 420.58081055 C-71.50020463 420.34790287 -76.8123278 420.06397888 -82.12488937 419.74424171 C-84.13086085 419.63202 -86.13790885 419.53746911 -88.14558792 419.46170616 C-104.52471086 418.82322571 -104.52471086 418.82322571 -109.3961792 414.72549438 C-111.90811702 411.99588554 -113.97449677 409.28793905 -116 406.1875 C-117.07226764 404.84525151 -118.15302127 403.50962956 -119.25 402.1875 C-122.05204749 398.33270585 -124.29188486 394.20886014 -126.5078125 389.99609375 C-128.00549643 387.07554749 -128.00549643 387.07554749 -130.06445312 384.02563477 C-132.30691784 380.0878616 -132.55211289 376.43296548 -132.4609375 371.96875 C-132.45270556 370.8416886 -132.45270556 370.8416886 -132.44430733 369.69185829 C-132.20957958 340.71566351 -132.20957958 340.71566351 -131.54345703 328.85009766 C-130.04969265 301.91980691 -129.7655997 275.01908676 -129.65625 248.0546875 C-129.65216519 247.07668151 -129.64808038 246.09867552 -129.64387178 245.09103298 C-129.58054125 229.74823013 -129.53853446 214.40538191 -129.5 199.0625 C-129.42333262 168.62457928 -129.31998941 138.18757938 -129.02455139 107.75086784 C-129.00057817 105.24786616 -128.97814522 102.74485439 -128.95593262 100.24183655 C-128.87514506 91.46966922 -128.75002321 82.70018695 -128.54975891 73.92990494 C-128.49698967 71.4157647 -128.45640665 68.90132976 -128.42985535 66.38677597 C-128.24850423 50.69161659 -125.96878938 38.29425483 -119 24.1875 C-118.41545044 22.97643774 -118.41545044 22.97643774 -117.8190918 21.74090958 C-115.61819183 17.18283472 -113.34752178 12.67179347 -111 8.1875 C-110.67 7.5275 -110.34 6.8675 -110 6.1875 C-108.20501709 5.80186462 -108.20501709 5.80186462 -105.83496094 5.60913086 C-104.95024109 5.53242661 -104.06552124 5.45572235 -103.1539917 5.37669373 C-102.19051819 5.30265823 -101.22704468 5.22862274 -100.234375 5.15234375 C-98.75605194 5.02696983 -98.75605194 5.02696983 -97.24786377 4.89906311 C-94.08257824 4.6321296 -90.91642429 4.37803572 -87.75 4.125 C-84.59809122 3.86614643 -81.44643173 3.60461905 -78.29498291 3.34022522 C-76.3308954 3.17619806 -74.36650282 3.01577469 -72.40179443 2.85935974 C-71.50446594 2.78580765 -70.60713745 2.71225555 -69.68261719 2.63647461 C-68.89731628 2.57366806 -68.11201538 2.51086151 -67.30291748 2.44615173 C-64.82904891 2.16829966 -62.43832967 1.68469024 -60 1.1875 C-57.40166352 0.90848753 -54.81010431 0.65575744 -52.20703125 0.43359375 C-51.0879261 0.33583397 -51.0879261 0.33583397 -49.94621277 0.23609924 C-48.37043505 0.09939648 -46.79452887 -0.03583255 -45.21850586 -0.16967773 C-42.83724342 -0.37288846 -40.45672808 -0.58361823 -38.07617188 -0.79492188 C-24.98753748 -1.93593606 -13.04497828 -1.74451286 0 0 Z " fill="#EDEDED" transform="translate(545,202.8125)"/>
<path d="M0 0 C1.31012873 -0.00611329 1.31012873 -0.00611329 2.6467247 -0.01235008 C7.23111435 -0.03267863 11.81547845 -0.04722062 16.39990234 -0.05688477 C20.11881291 -0.06586088 23.83736391 -0.08707462 27.55615234 -0.1184082 C32.16126734 -0.1571774 36.76606201 -0.17567465 41.37133408 -0.18016624 C43.08779017 -0.18495501 44.80424408 -0.19633954 46.52060318 -0.21520424 C58.19241231 -0.33604026 68.56983956 1.10476121 79.8046875 4.23828125 C81.28354539 4.63368598 82.76280758 5.02758177 84.24247742 5.41993713 C87.68017691 6.34208571 91.04574581 7.36521871 94.42529297 8.47363281 C96.10412697 9.01314729 97.79175967 9.52564531 99.48486328 10.01855469 C114.25219412 14.3953842 121.7057232 19.83768557 129.19140625 33.36328125 C129.63919434 34.20632812 130.08698242 35.049375 130.54833984 35.91796875 C132.18654569 38.9435242 134.04050165 41.7175647 135.9921875 44.55078125 C138.15983437 47.78372465 140.32447081 51.01840427 142.4765625 54.26171875 C142.93522705 54.95225342 143.3938916 55.64278809 143.86645508 56.35424805 C144.76812749 57.71195708 145.66903445 59.07017484 146.5690918 60.42895508 C148.49871338 63.48153237 148.49871338 63.48153237 150.8046875 66.23828125 C150.92670701 67.59955649 150.98117981 68.96696577 151.00802612 70.33343506 C151.02756725 71.2202018 151.04710838 72.10696854 151.06724167 73.02060699 C151.08356266 74.00477348 151.09988365 74.98893997 151.11669922 76.00292969 C151.13718952 77.03793358 151.15767982 78.07293747 151.17879105 79.13930511 C151.245134 82.62534027 151.3028757 86.11144832 151.359375 89.59765625 C151.38031094 90.81085289 151.40124687 92.02404953 151.42281723 93.2740097 C151.92633379 122.8498201 151.95798549 152.42497529 151.93325686 182.00427008 C151.92946508 187.06681829 151.93087054 192.12934701 151.93505859 197.19189453 C151.95692808 224.49506901 151.97835084 251.79892043 151.421875 279.09765625 C151.40672977 279.96445259 151.39158455 280.83124893 151.37598038 281.72431183 C151.15382468 293.85876492 149.95336425 305.30474105 146.8046875 317.05078125 C145.03787984 324.02008074 144.27090817 330.88817798 143.7421875 338.05078125 C142.53018124 354.32136863 138.77453736 366.00013265 128.85498047 378.93579102 C125.61082964 383.27822691 123.26403091 387.3213307 121.30078125 392.38671875 C118.33662112 399.33755539 115.12338761 404.87325371 108.8046875 409.23828125 C102.53815837 411.26802964 95.70615545 410.87350347 89.1953125 410.890625 C87.18040776 410.93318145 85.16558225 410.97963613 83.15084839 411.02963257 C77.57101704 411.15029577 71.99290884 411.19665523 66.41190338 411.22122574 C62.71977329 411.23868274 59.027904 411.26848725 55.33587646 411.3008728 C38.60818694 411.43919549 21.88278297 411.43780789 5.15483582 411.38234454 C-1.88830741 411.35935697 -8.9314564 411.34883593 -15.97462821 411.33892846 C-30.38156146 411.31840514 -44.78843591 411.28357874 -59.1953125 411.23828125 C-59.30128167 374.83919374 -59.30499717 338.44653021 -58.7578125 302.05078125 C-58.73524484 300.5345566 -58.71271313 299.01833141 -58.69021606 297.50210571 C-58.67889995 296.73952107 -58.66758383 295.97693644 -58.6559248 295.19124317 C-58.59731021 291.23817443 -58.53879266 287.28510429 -58.48046875 283.33203125 C-58.46861101 282.53074484 -58.45675327 281.72945843 -58.44453621 280.90389061 C-58.13096722 259.62021124 -57.90441764 238.33571421 -57.6953125 217.05078125 C-57.685214 216.02881149 -57.67511551 215.00684174 -57.664711 213.9539032 C-56.96697511 143.05051435 -56.60948537 72.14377091 -56.1953125 1.23828125 C-18.21832102 0.07627171 -18.21832102 0.07627171 0 0 Z " fill="#EDEDED" transform="translate(229.1953125,208.76171875)"/>
<path d="M0 0 C60.39 0 120.78 0 183 0 C183 26.72214549 183 26.72214549 182.5625 38.9375 C182.51810791 40.24855713 182.47371582 41.55961426 182.42797852 42.91040039 C182.10856513 51.95445855 181.65433024 60.97445308 181 70 C171.93318773 70.11397423 162.9657972 69.78699867 153.921875 69.16015625 C151.98384003 69.03053749 151.98384003 69.03053749 150.00665283 68.89830017 C147.29721541 68.71685132 144.58799236 68.53256656 141.87890625 68.34594727 C138.4311254 68.10851789 134.98299814 67.87666768 131.53470993 67.6467371 C128.20527666 67.42431618 124.87608113 67.19845271 121.546875 66.97265625 C119.70908478 66.8491555 119.70908478 66.8491555 117.83416748 66.72315979 C111.53365164 66.28807775 105.27058462 65.75386138 99 65 C99.0501123 66.0315773 99.10022461 67.0631546 99.15185547 68.12599182 C99.62654352 77.907378 100.09739323 87.68894264 100.56460571 97.47068882 C100.80485148 102.49804946 101.04639048 107.52534063 101.29101562 112.55249023 C101.52759412 117.41530257 101.76060496 122.27827457 101.99127197 127.14137077 C102.07932768 128.98510631 102.16861076 130.82878371 102.25921631 132.67239571 C102.78844642 143.45973842 103.12898547 154.19842698 103 165 C103.81352936 164.89977539 104.62705872 164.79955078 105.46524048 164.69628906 C113.14476194 163.75084508 120.82469852 162.80888073 128.50512123 161.87078857 C132.45335855 161.38842452 136.40142362 160.90473281 140.34912109 160.41796875 C144.16127315 159.94796809 147.97384312 159.48150489 151.78672409 159.01745605 C153.23886821 158.84009834 154.69085924 158.66148229 156.14268875 158.48156738 C158.18148188 158.22913581 160.22078124 157.9812478 162.26025391 157.734375 C163.99899277 157.52119629 163.99899277 157.52119629 165.77285767 157.30371094 C168.87147063 157.01209608 171.88996925 156.94464579 175 157 C175.29070586 162.91810638 175.57520722 168.83647059 175.85449219 174.75512695 C175.94988214 176.75943625 176.04683177 178.76367206 176.14550781 180.76782227 C176.28883722 183.68486828 176.42613817 186.60215209 176.5625 189.51953125 C176.60624756 190.38391312 176.64999512 191.24829498 176.69506836 192.13887024 C177.11889858 201.44794506 177 210.6443941 177 220 C149.61 220 122.22 220 94 220 C94.6496875 232.98730469 95.299375 245.97460938 95.96875 259.35546875 C96.37926096 267.59047733 96.78960841 275.82549353 97.19921875 284.06054688 C97.84918715 297.12729223 98.49981674 310.19400223 99.15478516 323.26049805 C99.63184583 332.77782956 100.10662391 342.29527179 100.5787034 351.81285173 C100.82855943 356.84860283 101.07952956 361.88429264 101.33323669 366.9198513 C101.57242414 371.66794364 101.80853908 376.41617922 102.04238701 381.16453743 C102.12833681 382.89908251 102.21537002 384.63357434 102.30362129 386.36800385 C102.78915606 395.92375414 103.12610092 405.42900362 103 415 C82.33015648 415.21985947 61.674853 414.59663315 41.01373291 414.07287598 C36.15243372 413.95023677 31.29105742 413.8307344 26.4296875 413.7109375 C16.95304871 413.47696105 7.47649799 413.23960658 -2 413 C-2.04580242 362.55248366 -2.0810319 312.10496942 -2.10213066 261.65743637 C-2.104632 255.69830064 -2.10722065 249.73916496 -2.10986328 243.7800293 C-2.1103879 242.59369927 -2.11091252 241.40736925 -2.11145304 240.18508983 C-2.12014979 220.98963337 -2.13591574 201.79418891 -2.15430559 182.59873956 C-2.17302496 162.89464165 -2.18412103 143.19055002 -2.18817699 123.48644358 C-2.19091782 111.33320143 -2.19956688 99.17999323 -2.21583293 87.02676154 C-2.22642495 78.68681853 -2.2295956 70.346893 -2.22700275 62.00694375 C-2.22572492 57.19910459 -2.2276497 52.39132466 -2.23841095 47.58349609 C-2.24821 43.17312207 -2.24859214 38.76284659 -2.24179779 34.35246784 C-2.2409592 32.76539925 -2.24343956 31.17832426 -2.24976636 29.59126806 C-2.2579322 27.4145397 -2.25338326 25.23815545 -2.24609566 23.06143093 C-2.2468551 21.8580972 -2.24761454 20.65476348 -2.24839699 19.41496509 C-1.88243076 12.91034471 -0.86103439 6.45775792 0 0 Z " fill="#EDEDED" transform="translate(671,207)"/>
<path d="M0 0 C7.7459478 -0.13992584 15.49159149 -0.24608397 23.23849106 -0.31087303 C26.83702449 -0.34199247 30.43468415 -0.38409888 34.03271484 -0.45263672 C37.5146855 -0.51853753 40.99582382 -0.5538512 44.47837067 -0.56926346 C46.4325358 -0.58550661 48.38637277 -0.63222965 50.34002686 -0.67977905 C59.31682156 -0.68311263 65.31534673 1.47080066 73 6 C73.15227236 19.50828147 72.68065937 32.93331293 71.99023438 46.42236328 C71.88147855 48.61216364 71.77311702 50.80198361 71.66511536 52.99182129 C71.37365201 58.87920138 71.07674128 64.76629507 70.77877998 70.6533494 C70.46726198 76.82707868 70.16085408 83.00106164 69.85388184 89.17501831 C69.2730953 100.84061933 68.68777712 112.50598828 68.10079145 124.17127883 C67.43220558 137.4626819 66.76873149 150.7543375 66.10566616 164.04601693 C64.74275976 191.36429535 63.37350074 218.68225234 62 246 C61.48091064 246.2266333 60.96182129 246.4532666 60.42700195 246.68676758 C58.05395715 247.72518975 55.68322607 248.76879562 53.3125 249.8125 C52.49587891 250.16892578 51.67925781 250.52535156 50.83789062 250.89257812 C46.71201107 252.7133104 42.85090825 254.63978641 39 257 C36.76196289 257.36749268 36.76196289 257.36749268 34.47265625 257.35644531 C33.60825928 257.35944641 32.7438623 257.36244751 31.85327148 257.36553955 C30.93231689 257.35319275 30.0113623 257.34084595 29.0625 257.328125 C28.10480713 257.32625183 27.14711426 257.32437866 26.16040039 257.32244873 C24.13977567 257.31573966 22.11916368 257.30184796 20.09863281 257.28125 C17.01094438 257.25011038 13.9237674 257.24027719 10.8359375 257.234375 C8.86978546 257.22520347 6.9036386 257.21482722 4.9375 257.203125 C4.01654541 257.19887512 3.09559082 257.19462524 2.14672852 257.19024658 C-2.02232172 257.14390869 -5.93615039 257.05398179 -10 256 C-10.13466937 241.71806372 -9.91846452 227.45331003 -9.59765625 213.17578125 C-9.55587638 211.29429641 -9.51410303 209.41281142 -9.47233582 207.53132629 C-9.31324733 200.4005319 -9.15292401 193.2697647 -8.98998642 186.13905716 C-8.38315738 159.53247574 -7.9358163 132.93615344 -7.89734077 106.32205391 C-7.8913024 102.33846299 -7.87964218 98.35489887 -7.86717224 94.37132263 C-7.85923981 91.74063123 -7.85135083 89.10993971 -7.84350586 86.47924805 C-7.8395729 85.1862551 -7.83563993 83.89326216 -7.83158779 82.56108761 C-7.81171696 74.88194228 -7.8238006 67.20362212 -7.85819817 59.52453995 C-7.87272381 54.70355629 -7.85858705 49.88293917 -7.83750153 45.06199265 C-7.83392375 42.83194866 -7.8424074 40.60184436 -7.86443329 38.37190628 C-7.99958772 24.08465455 -6.25010509 12.92454555 0 0 Z " fill="#000000" transform="translate(481,319)"/>
<path d="M0 0 C3.58954674 7.83575381 3.43178883 16.88218909 3.38818359 25.33325195 C3.39344055 26.60813477 3.39869751 27.88301758 3.40411377 29.1965332 C3.41765535 32.6575524 3.41254287 36.11829981 3.40297651 39.57932305 C3.39530594 43.22779004 3.40244628 46.87623594 3.40713501 50.52470398 C3.41257334 56.65152093 3.40545395 62.77822894 3.39111328 68.9050293 C3.37481236 75.94986807 3.38006436 82.99444594 3.3965925 90.03927833 C3.41028883 96.12465249 3.41208693 102.20994894 3.40427649 108.29533356 C3.39964155 111.91352391 3.39885749 115.53159244 3.40888596 119.14977455 C3.49842307 156.69165957 3.49842307 156.69165957 -2.875 163.8125 C-7.89629382 167.23854269 -14.1148065 167.40064901 -20 168 C-20.89589844 168.17917969 -21.79179688 168.35835937 -22.71484375 168.54296875 C-33.07139422 169.98377304 -43.74663158 168.67292988 -54.10791016 167.73046875 C-55.87523308 167.57630567 -57.64391944 167.43707332 -59.41357422 167.3125 C-76.05555391 166.13278425 -76.05555391 166.13278425 -80.515625 161.21875 C-81.85253906 159.24804688 -81.85253906 159.24804688 -83 157 C-83.5113147 156.12093994 -84.02262939 155.24187988 -84.54943848 154.33618164 C-86.19389397 150.55405856 -86.41056175 147.41503561 -86.35644531 143.37304688 C-86.35845853 142.62885435 -86.36047174 141.88466183 -86.36254597 141.11791801 C-86.36547753 138.6512833 -86.34693291 136.18530723 -86.328125 133.71875 C-86.3255215 131.96717464 -86.32415933 130.21559706 -86.32395935 128.46401978 C-86.31927176 123.77735057 -86.29530908 119.09097202 -86.2665062 114.40439606 C-86.24451925 110.53561779 -86.23226037 106.66683242 -86.21979427 102.79801369 C-86.18217174 91.38916311 -86.10835789 79.98074421 -86.0195694 68.57218933 C-86.00099185 66.13036756 -85.98389454 63.68854119 -85.96746826 61.2467041 C-85.91373007 53.34319058 -85.84265368 45.44034547 -85.73352051 37.53735352 C-85.70303844 35.27715231 -85.67669761 33.01689115 -85.65466309 30.7565918 C-85.62189568 27.67321321 -85.57004448 24.59079936 -85.51171875 21.5078125 C-85.50530869 20.63258942 -85.49889862 19.75736633 -85.49229431 18.85562134 C-85.36082612 13.47416315 -84.38699288 9.82773214 -82 5 C-81.26382366 3.19033576 -80.53378584 1.37815057 -79.8125 -0.4375 C-79.46832031 -1.30246094 -79.12414062 -2.16742187 -78.76953125 -3.05859375 C-78.51558594 -3.69925781 -78.26164062 -4.33992187 -78 -5 C-17.2714345 -13.08185723 -17.2714345 -13.08185723 0 0 Z " fill="#ECECEC" transform="translate(550,654)"/>
<path d="M0 0 C2.81517764 3.30559385 5.24089079 6.71138251 7.58203125 10.36328125 C8.02804687 11.01167969 8.4740625 11.66007813 8.93359375 12.328125 C15.44585845 22.49120476 13.5383487 36.42736988 13.60546875 48.09765625 C13.61079243 48.97561104 13.6161161 49.85356583 13.6216011 50.75812531 C13.64821597 55.42337666 13.66761049 60.08860259 13.68212891 64.75390625 C13.69532922 68.54126891 13.72293623 72.3280749 13.76416016 76.11523438 C13.96069398 94.6235155 14.08256987 112.95055647 11.10546875 131.265625 C10.90867523 132.48711243 10.71188171 133.70859985 10.50912476 134.96710205 C8.73025333 144.68031837 6.02765905 154.5968549 -1.58886719 161.37646484 C-9.45588493 166.52937994 -19.84859906 164.81366048 -28.66796875 164.73828125 C-43.84796875 164.73828125 -59.02796875 164.73828125 -74.66796875 164.73828125 C-74.66796875 107.64828125 -74.66796875 50.55828125 -74.66796875 -8.26171875 C-14.79084962 -12.53865583 -14.79084962 -12.53865583 0 0 Z " fill="#EBEBEB" transform="translate(748.66796875,656.26171875)"/>
<path d="M0 0 C12.06238274 1.72180141 24.03653176 3.69637967 36 6 C38.9306563 17.25716802 41.49842833 28.58070948 43.98095703 39.94458008 C44.2282959 41.07275146 44.47563477 42.20092285 44.73046875 43.36328125 C44.95114014 44.37688721 45.17181152 45.39049316 45.39916992 46.43481445 C45.98133815 49.09658944 45.98133815 49.09658944 47 52 C47.09973849 54.1656444 47.13830549 56.33426853 47.14526367 58.50219727 C47.14862228 59.16003204 47.1519809 59.81786682 47.15544128 60.49563599 C47.16498033 62.68591185 47.16689908 64.87611083 47.16796875 67.06640625 C47.17119069 68.61734547 47.17455543 70.1682844 47.17805481 71.71922302 C47.18406126 74.99535824 47.18589429 78.27146709 47.18530273 81.54760742 C47.18522299 84.83542569 47.19190887 88.12310011 47.20581055 91.41088867 C47.28973402 111.60471791 46.78645408 131.63483009 45.45302773 151.78266716 C44.76328918 162.38615435 44.26689343 173.00043297 43.74609375 183.61328125 C43.6927783 184.69471216 43.63946285 185.77614307 43.58453178 186.89034462 C43.31077694 192.44383131 43.03857255 197.99739143 42.76782227 203.55102539 C42.49252239 209.19589728 42.21384584 214.84059642 41.93404198 220.48524666 C41.76885602 223.82765841 41.60540611 227.17015139 41.44229126 230.51266479 C41.23173151 234.82576157 41.01436523 239.13843815 40.79232788 243.45095825 C40.33969152 252.41874249 39.93541511 261.36087892 39.94189453 270.34130859 C39.93366447 271.70517718 39.92506069 273.06904358 39.91603088 274.4329071 C39.91228986 276.81143345 39.94389153 279.19046746 40.02232361 281.56770325 C40.00738566 286.02178554 39.86763242 288.84933569 37.13664246 292.47120667 C32.02440455 297.32186912 28.33476324 298.90240188 21.26367188 298.75195312 C20.24853516 298.68943359 19.23339844 298.62691406 18.1875 298.5625 C16.68219727 298.52092773 16.68219727 298.52092773 15.14648438 298.47851562 C8.08063121 298.24707149 1.03921086 297.6376522 -6 297 C-6.02542929 292.0459833 -6.0431888 287.09200753 -6.05493164 282.13793945 C-6.0598457 280.46573218 -6.06657595 278.79352889 -6.07543945 277.12133789 C-6.12698298 267.11886267 -5.96697544 257.15349658 -5.5234375 247.16015625 C-4.9370487 233.84469394 -4.75990766 220.53216475 -4.61184692 207.20596313 C-4.5249806 199.46136273 -4.41970352 191.71699813 -4.3125 183.97265625 C-4.30107531 183.14619032 -4.28965061 182.31972439 -4.27787971 181.46821404 C-3.96952117 159.41447812 -3.52687669 137.36343047 -3.0625 115.3125 C-3.04138027 114.30781803 -3.02026054 113.30313606 -2.99850082 112.26800919 C-2.20919678 74.83881579 -1.20347971 37.41810684 0 0 Z " fill="#020202" transform="translate(276,284)"/>
<path d="M0 0 C69.54396728 0 69.54396728 0 79 8 C81.67320759 11.15236744 83.88263812 14.45608662 86 18 C86.55300781 18.81726563 87.10601562 19.63453125 87.67578125 20.4765625 C89.18696348 23.3562785 89.34340483 25.08536313 89.25 28.3125 C89.23453125 29.19550781 89.2190625 30.07851563 89.203125 30.98828125 C89.05681931 33.15754451 88.82329848 35.32154916 88.53515625 37.4765625 C88.04422564 41.19996714 87.80838892 44.91030624 87.60546875 48.66015625 C87.53650391 49.86607422 87.46753906 51.07199219 87.39648438 52.31445312 C87.25697907 54.81642209 87.12940337 57.31908432 87.01367188 59.82226562 C86.2862556 71.85360204 86.2862556 71.85360204 82 77 C78.984375 78.55859375 78.984375 78.55859375 75.75 79.4375 C74.67234375 79.74558594 73.5946875 80.05367187 72.484375 80.37109375 C71.66453125 80.57863281 70.8446875 80.78617188 70 81 C73.69566089 84.9577645 77.88895569 87.62705876 82.44140625 90.51171875 C87.6312938 95.55898343 88.11388239 101.12020952 88.30128479 108.1995697 C88.34881409 112.3424011 88.30296116 116.48243189 88.25 120.625 C88.23805724 122.401036 88.22699846 124.17707815 88.21679688 125.953125 C88.10165552 141.64326692 87.65087925 157.32350404 87 173 C83.64264863 174.11911712 81.11794614 174.11365586 77.58203125 174.09765625 C76.32841797 174.09443359 75.07480469 174.09121094 73.78320312 174.08789062 C72.47287109 174.07951172 71.16253906 174.07113281 69.8125 174.0625 C68.47721519 174.05748317 67.14192859 174.05292059 65.80664062 174.04882812 C62.53771527 174.03702695 59.26888009 174.02056297 56 174 C55.26320823 164.13915096 54.80023937 154.30419433 54.55526733 144.42007446 C54.46066511 140.70551386 54.3482407 136.99147591 54.23828125 133.27734375 C54.12457094 129.41961323 54.01306963 125.56199427 53.92333984 121.70361328 C53.86148587 119.07237213 53.77831424 116.44286953 53.6875 113.8125 C53.6771875 113.09674805 53.666875 112.38099609 53.65625 111.64355469 C53.44209702 106.42485049 52.30131076 103.05399056 49 99 C45.04 97.35 41.08 95.7 37 94 C37 120.07 37 146.14 37 173 C24.79 173 12.58 173 0 173 C0 115.91 0 58.82 0 0 Z " fill="#ECECEC" transform="translate(170,647)"/>
<path d="M0 0 C70.90250508 0 70.90250508 0 81.45800781 10.44238281 C86.53975125 16.03693007 89.50773074 21.69218993 89.34887695 29.34350586 C89.11852743 32.60011139 88.73302003 35.82735523 88.3203125 39.06542969 C87.95186234 42.44101732 87.76460364 45.80404576 87.59375 49.1953125 C87.52647705 50.4436084 87.4592041 51.6919043 87.38989258 52.97802734 C87.25729058 55.44931909 87.13186101 57.92100854 87.0144043 60.39306641 C86.59577661 66.94618206 86.17908638 71.79434362 82 77 C79.52734375 78.33984375 79.52734375 78.33984375 76.9375 78.9375 C76.08027344 79.15277344 75.22304688 79.36804688 74.33984375 79.58984375 C72 80 72 80 69 80 C72.83723237 84.09304786 77.01917804 87.30172866 81.59765625 90.546875 C87.23239729 96.30072438 88.46329876 102.65774268 88.40258789 110.51245117 C88.37285889 111.56021729 88.34312988 112.6079834 88.3125 113.6875 C88.29630615 114.80165283 88.2801123 115.91580566 88.26342773 117.0637207 C88.20113573 120.71019868 88.10410341 124.35448803 88 128 C87.95069336 129.92779297 87.95069336 129.92779297 87.90039062 131.89453125 C87.54091169 145.60899157 87.12768072 159.32387212 86 173 C82.64264863 174.11911712 80.11794614 174.11365586 76.58203125 174.09765625 C75.32841797 174.09443359 74.07480469 174.09121094 72.78320312 174.08789062 C71.47287109 174.07951172 70.16253906 174.07113281 68.8125 174.0625 C67.47721519 174.05748317 66.14192859 174.05292059 64.80664062 174.04882812 C61.53771527 174.03702695 58.26888009 174.02056297 55 174 C54.97716446 173.28749084 54.95432892 172.57498169 54.93080139 171.84088135 C54.71341563 165.07509038 54.49306414 158.30940155 54.26950932 151.5438118 C54.15472178 148.06685495 54.04101938 144.58987015 53.92993164 141.11279297 C53.80171404 137.10112181 53.66853442 133.08962792 53.53515625 129.078125 C53.49656998 127.84950745 53.4579837 126.62088989 53.41822815 125.3550415 C53.3013069 121.90199776 53.15610987 118.45147238 53 115 C52.96188202 113.87702515 52.92376404 112.75405029 52.88449097 111.5970459 C52.82907135 110.53215942 52.77365173 109.46727295 52.71655273 108.37011719 C52.67497543 107.42980652 52.63339813 106.48949585 52.59056091 105.52069092 C51.84619272 102.34350444 50.36721307 101.1664183 48 99 C48 98.34 48 97.68 48 97 C44.04 96.01 40.08 95.02 36 94 C36.33 120.07 36.66 146.14 37 173 C24.79 173 12.58 173 0 173 C0 115.91 0 58.82 0 0 Z " fill="#ECECEC" transform="translate(571,647)"/>
<path d="M0 0 C1.40572266 0.25716797 1.40572266 0.25716797 2.83984375 0.51953125 C3.71769531 0.71933594 4.59554687 0.91914062 5.5 1.125 C6.2528125 1.29257812 7.005625 1.46015625 7.78125 1.6328125 C11.4243161 3.87765957 13.27266942 7.1352773 15 11 C15.63572437 14.56339422 15.5870805 18.01463453 15.48828125 21.625 C15.48120651 22.61250244 15.47413177 23.60000488 15.46684265 24.61743164 C15.43903956 27.7457523 15.37632717 30.87222798 15.3125 34 C15.28739895 36.13148442 15.26458896 38.26299712 15.24414062 40.39453125 C15.1892598 45.59697481 15.10577713 50.79835555 15 56 C11.99347406 56.01359992 8.98701087 56.02346787 5.98046875 56.03125 C5.13867065 56.03543945 4.29687256 56.03962891 3.42956543 56.04394531 C-3.43998623 56.05724229 -10.15594693 55.64414617 -17 55 C-17 47.74 -17 40.48 -17 33 C-22.28 33 -27.56 33 -33 33 C-34.49304959 41.01861596 -33.65676306 48.9293765 -33.0625 57 C-32.96088399 58.45698228 -32.85996646 59.91401346 -32.75976562 61.37109375 C-32.51456789 64.91466284 -32.25989967 68.4574753 -32 72 C-31.32759277 72.01458252 -30.65518555 72.02916504 -29.96240234 72.04418945 C-26.76616298 72.12096214 -23.57072702 72.21680874 -20.375 72.3125 C-18.79138672 72.34633789 -18.79138672 72.34633789 -17.17578125 72.38085938 C-6.00877645 72.74003204 4.95852503 74.36985839 16 76 C16.07088285 83.46975624 16.12348726 90.93947594 16.15543652 98.40949631 C16.17080432 101.8816832 16.19147963 105.35363314 16.22631836 108.82568359 C16.36839486 123.45746712 16.23003736 138.03664215 14.9921875 152.625 C14.9176384 153.78344421 14.84308929 154.94188843 14.76628113 156.13543701 C13.99182983 163.81010975 13.99182983 163.81010975 11.2565155 167.09164429 C-0.57365729 176.69779809 -17.68547728 175.09044318 -32 174 C-32.83152588 173.94392578 -33.66305176 173.88785156 -34.51977539 173.83007812 C-43.13110469 173.09292863 -51.57178061 169.62737443 -58.75 164.8125 C-64.72851704 157.3393537 -63.27893108 145.31653421 -63.1875 136.25 C-63.18064588 134.91585459 -63.17413729 133.58170735 -63.16796875 132.24755859 C-63.09865706 123.46771644 -62.85871699 114.74051221 -62 106 C-59.37482894 106.14313578 -56.74989574 106.28946295 -54.125 106.4375 C-53.39796875 106.47681641 -52.6709375 106.51613281 -51.921875 106.55664062 C-46.24854381 106.88012003 -40.66814156 107.43318584 -35 108 C-35 116.58 -35 125.16 -35 134 C-32.669375 134.144375 -30.33875 134.28875 -27.9375 134.4375 C-22.90197159 134.74943539 -17.98051782 135.22928268 -13 136 C-13.00523682 135.33170166 -13.01047363 134.66340332 -13.01586914 133.97485352 C-13.10645605 120.60812411 -13.02689002 107.33123299 -12 94 C-12.97195313 94.01160156 -13.94390625 94.02320313 -14.9453125 94.03515625 C-23.49657226 94.10360002 -32.0190055 93.9429649 -40.5625 93.5625 C-41.47725098 93.52326416 -42.39200195 93.48402832 -43.33447266 93.44360352 C-44.21538574 93.40162842 -45.09629883 93.35965332 -46.00390625 93.31640625 C-46.77549072 93.27974854 -47.5470752 93.24309082 -48.34204102 93.20532227 C-51.91392793 92.92940081 -55.44745381 92.46261889 -59 92 C-60.30693359 71.17074598 -61.27656169 50.32241673 -61.51928711 29.45144653 C-61.54804363 27.36259839 -61.58901661 25.27388193 -61.64233398 23.18551636 C-61.71394076 20.24403345 -61.73985484 17.30552923 -61.75390625 14.36328125 C-61.78368057 13.48787689 -61.8134549 12.61247253 -61.84413147 11.71054077 C-61.80250769 5.92300718 -61.80250769 5.92300718 -59.56033325 3.34416199 C-56.31808743 0.88153138 -53.27712816 -0.61628568 -49.171875 -0.92578125 C-48.29909912 -1.00022461 -47.42632324 -1.07466797 -46.52709961 -1.15136719 C-45.61065674 -1.20454102 -44.69421387 -1.25771484 -43.75 -1.3125 C-42.78779541 -1.38243164 -41.82559082 -1.45236328 -40.83422852 -1.52441406 C-27.12411638 -2.43924774 -13.5103355 -2.88588119 0 0 Z " fill="#EBEBEB" transform="translate(838,647)"/>
<path d="M0 0 C1.10967133 -0.00669708 2.21934265 -0.01339417 3.36264038 -0.02029419 C5.70419094 -0.02504137 8.04583532 -0.01223773 10.38720703 0.01708984 C13.93087523 0.05437123 17.46824993 0.01752277 21.01171875 -0.02734375 C33.69502225 -0.05082017 43.72681942 0.47443484 54.3359375 7.9296875 C54.4821547 14.85913703 54.62400469 21.7886673 54.76318359 28.71826172 C54.81074229 31.0626821 54.85920668 33.40708433 54.90869141 35.75146484 C55.2609441 52.47987354 55.40407872 69.19761078 55.3359375 85.9296875 C48.12451279 87.06089138 41.87801817 86.9296875 34.3359375 86.9296875 C34.3359375 71.4196875 34.3359375 55.9096875 34.3359375 39.9296875 C24.7659375 39.9296875 15.1959375 39.9296875 5.3359375 39.9296875 C5.3359375 43.8896875 5.3359375 47.8496875 5.3359375 51.9296875 C4.8671875 55.7421875 4.8671875 55.7421875 4.58984375 57.6328125 C3.95617086 63.36511492 3.98508114 69.16744629 3.8359375 74.9296875 C3.45375337 89.69556763 3.45375337 89.69556763 2.81640625 93.9140625 C1.99192207 99.60714878 2.14995191 105.37859266 2.15063477 111.11865234 C2.14845705 113.16134777 2.13027298 115.203494 2.11132812 117.24609375 C2.07792975 125.32776727 2.68802768 133.00851645 4.3359375 140.9296875 C8.25179145 141.155774 12.16853173 141.35747256 16.0859375 141.5546875 C17.19710937 141.61914062 18.30828125 141.68359375 19.453125 141.75 C20.52304687 141.8015625 21.59296875 141.853125 22.6953125 141.90625 C23.67983398 141.95861816 24.66435547 142.01098633 25.67871094 142.06494141 C28.4456013 141.92410557 29.99103253 141.35511729 32.3359375 139.9296875 C32.32433594 138.83011719 32.31273437 137.73054687 32.30078125 136.59765625 C32.24066291 128.30038602 32.40537296 120.18844778 33.3359375 111.9296875 C39.6059375 111.9296875 45.8759375 111.9296875 52.3359375 111.9296875 C54.58746189 120.93578506 54.58746189 120.93578506 54.56640625 124.1015625 C54.56511719 124.83536133 54.56382812 125.56916016 54.5625 126.32519531 C54.54960937 127.10217773 54.53671875 127.87916016 54.5234375 128.6796875 C54.51699219 129.51081055 54.51054687 130.34193359 54.50390625 131.19824219 C54.3621515 143.44673882 53.83458765 155.69153978 53.3359375 167.9296875 C51.15284116 168.91980193 48.96526484 169.89674318 46.7734375 170.8671875 C46.16435547 171.14498047 45.55527344 171.42277344 44.92773438 171.70898438 C35.09576044 176.02672954 24.52611472 175.11754143 14.00585938 174.96240234 C12.34060297 174.94199778 10.67513086 174.93260038 9.00976562 174.93994141 C0.0656916 174.97838878 -7.64310695 173.6843924 -16.1015625 170.6796875 C-17.33737061 170.24837524 -17.33737061 170.24837524 -18.59814453 169.80834961 C-19.3611084 169.51323486 -20.12407227 169.21812012 -20.91015625 168.9140625 C-21.58747803 168.65334961 -22.2647998 168.39263672 -22.96264648 168.12402344 C-30.16908769 163.06534782 -30.53584537 144.89882217 -32.09863281 136.39941406 C-33.22098289 129.51217775 -33.25335791 122.88148255 -32.6640625 115.9296875 C-32.6012207 115.12595703 -32.53837891 114.32222656 -32.47363281 113.49414062 C-32.09804572 108.77902382 -31.67641695 104.0690488 -31.23828125 99.359375 C-30.60173409 92.3886973 -30.07602064 85.41317426 -29.6015625 78.4296875 C-29.51229492 77.15335449 -29.42302734 75.87702148 -29.33105469 74.56201172 C-28.83102691 66.96959837 -28.61072679 59.41361441 -28.59765625 51.8046875 C-28.58581022 50.06445006 -28.57352218 48.32421557 -28.56079102 46.58398438 C-28.53722075 43.2342523 -28.56463165 39.89023549 -28.62084961 36.54101562 C-28.65624862 23.64085479 -25.37177034 13.44384382 -16.11523438 4.06396484 C-11.08949968 -0.11697454 -6.33098355 -0.08525496 0 0 Z " fill="#EBEBEB" transform="translate(396.6640625,646.0703125)"/>
<path d="M0 0 C17.52790043 -0.07487171 35.03873931 0.13149526 52.5625 0.5 C54.9537714 0.54840696 57.34504744 0.59658496 59.73632812 0.64453125 C65.49094133 0.76039782 71.24549198 0.8790275 77 1 C77.70323695 12.05992729 78.14025601 23.03960827 78.0625 34.125 C78.041875 38.37375 78.02125 42.6225 78 47 C61.5 47 45 47 28 47 C28 56.57 28 66.14 28 76 C40.54 76 53.08 76 66 76 C67 87 67 87 67 99 C55.12 99 43.24 99 31 99 C31.495 102.96 31.495 102.96 32 107 C32.07509869 109.30108833 32.10831499 111.6039612 32.09765625 113.90625 C32.09443359 115.14375 32.09121094 116.38125 32.08789062 117.65625 C32.07532227 119.55890625 32.07532227 119.55890625 32.0625 121.5 C32.05798828 122.799375 32.05347656 124.09875 32.04882812 125.4375 C32.0371092 128.62504825 32.02070219 131.81249955 32 135 C32.67240723 134.99476318 33.34481445 134.98952637 34.03759766 134.98413086 C49.40161829 134.8811129 64.65649376 135.18167967 80 136 C80 147.88 80 159.76 80 172 C59.57570298 172.04010881 59.57570298 172.04010881 50.90039062 172.04882812 C44.97012442 172.0548166 39.03987358 172.06191703 33.10961914 172.07543945 C28.33101164 172.08626822 23.55242062 172.09227681 18.7738018 172.09487724 C16.94646381 172.09673151 15.11912676 172.10035216 13.29179573 172.10573006 C10.74146671 172.11294036 8.19120663 172.11399095 5.64086914 172.11352539 C4.87770386 172.11712067 4.11453857 172.12071594 3.32824707 172.12442017 C-1.88594784 172.11405216 -1.88594784 172.11405216 -3 171 C-3.10055195 168.6425994 -3.13617604 166.31451463 -3.12939453 163.95654297 C-3.13111853 163.21459623 -3.13284252 162.4726495 -3.13461876 161.70821953 C-3.13899153 159.21952041 -3.13600044 156.73088762 -3.1328125 154.2421875 C-3.13391168 152.4873248 -3.13534211 150.73246228 -3.13708496 148.9776001 C-3.14000475 144.25587937 -3.13566602 139.53419312 -3.12897491 134.81247711 C-3.12500964 131.88212587 -3.12249219 128.9517764 -3.12030029 126.02142334 C-3.04467777 38.23645983 -3.04467777 38.23645983 0 0 Z " fill="#ECECEC" transform="translate(276,648)"/>
<path d="M0 0 C3.41714219 0.3074354 6.83360937 0.62183088 10.25 0.9375 C11.21808594 1.02451172 12.18617188 1.11152344 13.18359375 1.20117188 C14.11816406 1.28818359 15.05273438 1.37519531 16.015625 1.46484375 C16.87446289 1.543396 17.73330078 1.62194824 18.61816406 1.70288086 C20.81641589 1.97709903 22.86718545 2.41066966 25 3 C33.95735611 28.83237521 28.99295571 59.28128022 25.70120239 85.80015564 C25.02835819 91.32199965 24.69139643 96.824776 24.53686523 102.38745117 C23.83933862 105.78182692 22.78825091 106.97355334 20 109 C17.43457031 109.45410156 17.43457031 109.45410156 14.578125 109.390625 C13.04091797 109.37128906 13.04091797 109.37128906 11.47265625 109.3515625 C10.40917969 109.31804687 9.34570312 109.28453125 8.25 109.25 C7.17105469 109.23195313 6.09210937 109.21390625 4.98046875 109.1953125 C2.31941212 109.14821415 -0.33984254 109.082456 -3 109 C-3.03031433 105.45835316 -3.04721505 101.91674101 -3.0625 98.375 C-3.07087891 97.41464844 -3.07925781 96.45429687 -3.08789062 95.46484375 C-3.10995404 88.53693044 -2.8677974 81.64395291 -2.52734375 74.7265625 C-1.87563614 61.4169115 -1.66410222 48.10532257 -1.44775391 34.78271484 C-1.25492074 23.15788248 -1.05044267 11.5854648 0 0 Z " fill="#030303" transform="translate(694,679)"/>
<path d="M0 0 C3.72890255 -0.1164862 7.45733514 -0.18734576 11.1875 -0.25 C12.77014648 -0.30027344 12.77014648 -0.30027344 14.38476562 -0.3515625 C15.40634766 -0.36445312 16.42792969 -0.37734375 17.48046875 -0.390625 C18.41785889 -0.41157227 19.35524902 -0.43251953 20.32104492 -0.45410156 C23.98431269 0.16684786 25.44279934 1.30237287 28 4 C28.39728519 6.94061815 28.4944721 9.26683625 28.33984375 12.18310547 C28.31800522 12.98032957 28.29616669 13.77755367 28.27366638 14.59893608 C28.22606737 16.25732583 28.16767124 17.91543871 28.09881592 19.57308197 C28.00735872 21.81926984 27.94690246 24.06305692 27.90283203 26.31060791 C27.81768427 30.56482193 27.69203058 34.81725198 27.5625 39.0703125 C27.5174314 40.61399686 27.47259584 42.15768803 27.42797852 43.7013855 C27.31191293 47.69609503 27.1927582 51.69070616 27.07287598 55.68530273 C26.95029949 59.78884319 26.83076053 63.89247213 26.7109375 67.99609375 C26.47686848 75.99748355 26.23952372 83.99877163 26 92 C21.83573168 93.93375219 18.63173326 95.38285841 13.9765625 95.328125 C13.10128906 95.32296875 12.22601563 95.3178125 11.32421875 95.3125 C10.43347656 95.291875 9.54273438 95.27125 8.625 95.25 C7.25408203 95.24226562 7.25408203 95.24226562 5.85546875 95.234375 C-0.84527726 95.15472274 -0.84527726 95.15472274 -2 94 C-2.105832 91.25718419 -2.14677851 88.53941722 -2.14526367 85.79589844 C-2.14862228 84.93571609 -2.1519809 84.07553375 -2.15544128 83.18928528 C-2.16498427 80.32930071 -2.16689631 77.46937452 -2.16796875 74.609375 C-2.17117988 72.62738012 -2.17454384 70.64538548 -2.17805481 68.66339111 C-2.18405507 64.50036062 -2.18589388 60.33735092 -2.18530273 56.17431641 C-2.18520126 50.83992984 -2.1988342 45.50567682 -2.21607494 40.17132187 C-2.22719701 36.07409046 -2.22922185 31.97689126 -2.22869301 27.8796463 C-2.22987355 25.91326692 -2.2342995 23.94688672 -2.24202538 21.98052216 C-2.25182586 19.22747996 -2.24894654 16.47472656 -2.24291992 13.72167969 C-2.24853943 12.90901138 -2.25415894 12.09634308 -2.25994873 11.25904846 C-2.236634 7.06639906 -1.89850014 3.768585 0 0 Z " fill="#030303" transform="translate(494,693)"/>
<path d="M0 0 C15.54545455 0 15.54545455 0 19 3 C23.44614672 12.0340033 23.29190275 22.22715491 23.4375 32.0625 C23.48326172 33.32900391 23.52902344 34.59550781 23.57617188 35.90039062 C23.6860708 44.94554961 23.6860708 44.94554961 21.7277832 47.95532227 C15.37528644 53.41860628 8.02628923 52 0 52 C0 34.84 0 17.68 0 0 Z " fill="#040404" transform="translate(194,667)"/>
<path d="M0 0 C15.64705882 0 15.64705882 0 19 3 C23.48217897 12.48221926 23.29282671 23.73712119 23 34 C22.98324219 35.051875 22.96648438 36.10375 22.94921875 37.1875 C22.88154297 38.7653125 22.88154297 38.7653125 22.8125 40.375 C22.77769531 41.33148437 22.74289062 42.28796875 22.70703125 43.2734375 C22 46 22 46 17 51 C11.39 51 5.78 51 0 51 C0 34.17 0 17.34 0 0 Z " fill="#010101" transform="translate(595,667)"/>
</svg>
